<svg xmlns="http://www.w3.org/2000/svg" viewBox="0 0 56 32"><rect width="56" height="32" fill="#6772EB"/><path d="M39.5556 16C39.5556 19.0647 38.3381 22.0039 36.171 24.171C34.0039 26.3381 31.0647 27.5556 28 27.5556C24.9353 27.5556 21.9961 26.3381 19.829 24.171C17.6619 22.0039 16.4444 19.0647 16.4444 16C16.4444 12.9353 17.6619 9.99607 19.829 7.82899C21.9961 5.6619 24.9353 4.44444 28 4.44444C31.0647 4.44444 34.0039 5.6619 36.171 7.82899C38.3381 9.99607 39.5556 12.9353 39.5556 16V16ZM26.2522 11.801C26.1442 11.7241 26.0172 11.6784 25.8849 11.669C25.7527 11.6595 25.6204 11.6866 25.5026 11.7473C25.3847 11.808 25.2859 11.9 25.2168 12.0132C25.1478 12.1263 25.1112 12.2563 25.1111 12.3889V19.6111C25.1112 19.7437 25.1478 19.8737 25.2168 19.9868C25.2859 20.1 25.3847 20.192 25.5026 20.2527C25.6204 20.3134 25.7527 20.3405 25.8849 20.331C26.0172 20.3216 26.1442 20.2759 26.2522 20.199L31.3078 16.5879C31.4014 16.5211 31.4777 16.4329 31.5304 16.3306C31.583 16.2284 31.6105 16.115 31.6105 16C31.6105 15.885 31.583 15.7716 31.5304 15.6694C31.4777 15.5671 31.4014 15.4789 31.3078 15.4121L26.2522 11.801V11.801Z" fill="white"/></svg>